<?xml version="1.0" standalone="no"?><svg xmlns="http://www.w3.org/2000/svg" viewBox="0 0 1440 320"><path fill="#0099ff" fill-opacity="0.9" d="M0,0L34.3,26.7C68.6,53,137,107,206,138.7C274.3,171,343,181,411,208C480,235,549,277,617,277.3C685.7,277,754,235,823,186.7C891.4,139,960,85,1029,90.7C1097.1,96,1166,160,1234,176C1302.9,192,1371,160,1406,144L1440,128L1440,320L1405.7,320C1371.4,320,1303,320,1234,320C1165.7,320,1097,320,1029,320C960,320,891,320,823,320C754.3,320,686,320,617,320C548.6,320,480,320,411,320C342.9,320,274,320,206,320C137.1,320,69,320,34,320L0,320Z"></path></svg>